<?xml version="1.0" encoding="UTF-8"?>
<svg width="329px" height="140px" viewBox="0 0 329 140" version="1.1" xmlns="http://www.w3.org/2000/svg" xmlns:xlink="http://www.w3.org/1999/xlink">
    <title>Group</title>
    <defs>
        <linearGradient x1="-0.828097821%" y1="6.94873213%" x2="57.6359644%" y2="78.8824864%" id="linearGradient-1">
            <stop stop-color="#41D1FF" offset="0%"></stop>
            <stop stop-color="#BD34FE" offset="100%"></stop>
        </linearGradient>
        <linearGradient x1="43.506666%" y1="2.24179788%" x2="50.3096539%" y2="89.0299051%" id="linearGradient-2">
            <stop stop-color="#FFEA83" offset="0%"></stop>
            <stop stop-color="#FFDD35" offset="8.33333%"></stop>
            <stop stop-color="#FFA800" offset="100%"></stop>
        </linearGradient>
    </defs>
    <g id="Page-1" stroke="none" stroke-width="1" fill="none" fill-rule="evenodd">
        <g id="Group">
            <g id="logo" fill-rule="nonzero">
                <path d="M137.543363,21.3039336 L72.7178414,138.181595 C71.3793912,140.594667 67.9407827,140.608876 66.5822505,138.207526 L0.471373365,21.3151944 C-1.00864812,18.6983273 1.21070942,15.5285814 4.15181187,16.0586189 L69.0467041,27.7541148 C69.4606759,27.8287129 69.8845126,27.8280025 70.2984844,27.7519479 L133.836289,16.0753857 C136.767562,15.5367161 138.997372,18.6819157 137.543363,21.3039336 Z" id="Path" fill="url(#linearGradient-1)"></path>
                <path d="M100.115884,0.0342059034 L52.3547191,9.48650755 C51.5697137,9.6418565 50.9885009,10.3137717 50.941148,11.1201337 L48.003165,61.2369451 C47.9340649,62.4173845 49.0073968,63.3335359 50.148075,63.0678308 L63.4454647,59.9682915 C64.6896177,59.6784957 65.8138101,60.7852463 65.5581046,62.04894 L61.6074715,81.588189 C61.3415938,82.9032524 62.5639996,84.0277166 63.8355121,83.6376614 L72.0486057,81.1173594 C73.321872,80.72695 74.54533,81.8546027 74.2759448,83.1707289 L67.9976547,113.862509 C67.6048012,115.782317 70.1330941,116.829196 71.1874848,115.183241 L71.8918151,114.08393 L110.810269,35.6378471 C111.461984,34.3243779 110.338143,32.8266865 108.90984,33.1050747 L95.2224026,35.7731796 C93.9361582,36.023651 92.8417805,34.8138068 93.2048193,33.5427796 L102.138378,2.26346865 C102.501768,0.990298095 101.403532,-0.220594363 100.115884,0.0342059034 Z" id="Path" fill="url(#linearGradient-2)"></path>
            </g>
            <g id="reveal-white-text" transform="translate(171.000000, 0.000000)">
                <path d="M150.358492,107.043904 L150.358492,34.7067036 L30.6415335,8.25524949 L30.6415335,131.788907 L150.358492,107.043904 Z M153.938539,114.09476 C156.30384,113.60575 158,111.525865 158,109.114379 L158,32.6649637 C158,30.2796703 156.3395,28.2147895 154.006548,27.6993321 L29.1952507,0.122210255 C26.0148551,-0.58048497 23,1.83606389 23,5.08797149 L23,134.912167 C23,138.135619 25.96544,140.546087 29.1272413,139.892547 L153.938539,114.09476 Z" id="Shape" fill="#D53F8C"></path>
                <path d="M0,30.8855914 C0,28.474104 1.69624443,26.3942184 4.06151321,25.9052075 L128.872783,0.107451623 C132.034585,-0.546068336 135,1.86425696 135,5.08776186 L135,134.91217 C135,138.164105 131.98517,140.580424 128.804774,139.877805 L3.99352925,112.300947 C1.66060953,111.785489 0,109.720353 0,107.335058 L0,30.8855914 Z" id="Path" fill="#F2E142" fill-rule="nonzero"></path>
                <polygon id="Path" fill="#D53F8C" fill-rule="nonzero" points="31 6 31 134 23 134 23 6"></polygon>
            </g>
        </g>
    </g>
</svg>